<svg id="visual" viewBox="0 0 960 540" width="960" height="540" xmlns="http://www.w3.org/2000/svg" xmlns:xlink="http://www.w3.org/1999/xlink" version="1.1"><g stroke-width="1" stroke-linejoin="bevel"><path d="M533 344L682 540L666 356Z" fill="#a89483" stroke="#a89483"></path><path d="M533 344L466 540L682 540Z" fill="#8c715d" stroke="#8c715d"></path><path d="M960 328L732 145L666 356Z" fill="#8c715d" stroke="#8c715d"></path><path d="M666 356L732 145L533 344Z" fill="#c5b9ac" stroke="#c5b9ac"></path><path d="M732 145L452 141L533 344Z" fill="#e4ded7" stroke="#e4ded7"></path><path d="M212 331L216 540L466 540Z" fill="#8c715d" stroke="#8c715d"></path><path d="M682 540L960 540L666 356Z" fill="#f4f1ed" stroke="#f4f1ed"></path><path d="M212 331L466 540L533 344Z" fill="#623e2a" stroke="#623e2a"></path><path d="M960 540L960 328L666 356Z" fill="#f4f1ed" stroke="#f4f1ed"></path><path d="M452 141L212 331L533 344Z" fill="#f4f1ed" stroke="#f4f1ed"></path><path d="M715 0L467 0L452 141Z" fill="#8c715d" stroke="#8c715d"></path><path d="M452 141L197 127L212 331Z" fill="#9a8270" stroke="#9a8270"></path><path d="M960 0L715 0L732 145Z" fill="#7e5f4b" stroke="#7e5f4b"></path><path d="M732 145L715 0L452 141Z" fill="#8c715d" stroke="#8c715d"></path><path d="M960 328L960 137L732 145Z" fill="#9a8270" stroke="#9a8270"></path><path d="M204 0L197 127L452 141Z" fill="#a89483" stroke="#a89483"></path><path d="M212 331L0 540L216 540Z" fill="#f4f1ed" stroke="#f4f1ed"></path><path d="M960 137L960 0L732 145Z" fill="#623e2a" stroke="#623e2a"></path><path d="M0 314L0 540L212 331Z" fill="#f4f1ed" stroke="#f4f1ed"></path><path d="M467 0L204 0L452 141Z" fill="#d4cbc1" stroke="#d4cbc1"></path><path d="M0 166L0 314L212 331Z" fill="#b7a697" stroke="#b7a697"></path><path d="M0 166L212 331L197 127Z" fill="#704e3a" stroke="#704e3a"></path><path d="M0 0L0 166L197 127Z" fill="#f4f1ed" stroke="#f4f1ed"></path><path d="M204 0L0 0L197 127Z" fill="#623e2a" stroke="#623e2a"></path></g></svg>